<svg width="45" height="45" viewBox="0 0 45 45" fill="none" xmlns="http://www.w3.org/2000/svg">
<circle cx="22.4161" cy="22.5001" r="17.6786" fill="#C4C4C4" fill-opacity="0.4"/>
<path d="M12.6685 10.4465L14.4742 32.143L22.5821 34.5537L30.6872 32.1445L32.4957 10.4465H12.6685Z" fill="#2196F3"/>
<path d="M28.6351 17.5414L28.4071 20.267L27.7188 28.4378L22.5822 29.949L22.5779 29.9505L17.4441 28.4378L17.0858 24.1648H19.601L19.7879 26.3812L22.5793 27.1827L22.5807 27.1812L25.3764 26.3797L25.7574 22.6868L16.9654 22.7124L16.7161 20.1872L25.9684 20.0711L26.1553 17.3681L16.4683 17.3968L16.3054 14.8821H22.5822H28.8589L28.6351 17.5414Z" fill="#FAFAFA"/>
<path d="M7.73868 5.51903C3.74522 8.99049 1.10299 13.7583 0.276298 18.9847C-0.550395 24.2111 0.49134 29.5617 3.21845 34.0962C5.94555 38.6307 10.1835 42.059 15.1877 43.7786C20.1918 45.4983 25.642 45.3993 30.5804 43.499C35.5187 41.5987 39.6294 38.0188 42.19 33.3882C44.7506 28.7577 45.5973 23.3728 44.5814 18.1799C43.5654 12.9869 40.7517 8.31821 36.6348 4.99409C32.5179 1.66997 27.3612 -0.096855 22.0707 0.00409513L22.1364 3.44669C26.6172 3.36119 30.9848 4.85763 34.4717 7.67306C37.9586 10.4885 40.3417 14.4427 41.2022 18.841C42.0627 23.2392 41.3456 27.8 39.1768 31.722C37.0081 35.6439 33.5265 38.676 29.3438 40.2855C25.1611 41.8949 20.5451 41.9788 16.3067 40.5223C12.0684 39.0658 8.47891 36.1622 6.16914 32.3216C3.85937 28.481 2.97706 23.9493 3.67724 19.5227C4.37742 15.0961 6.6153 11.0579 9.99763 8.11767L7.73868 5.51903Z" fill="#3B5999"/>
</svg>
