<svg width="21" height="31" viewBox="0 0 21 31" fill="none" xmlns="http://www.w3.org/2000/svg">
<path d="M20.0052 19.4831C19.3443 18.7588 18.3394 18.6763 17.5166 19.2559C16.5444 19.9405 15.1219 20.8202 13.9496 21.3931C13.5651 20.2655 13.3988 18.7592 13.0891 17.542L13.1153 10.5806C13.1153 10.5806 17.4136 10.0816 18.654 9.91617C19.9757 9.80783 20.178 8.78574 19.8967 8.06807C19.8285 7.89357 18.1017 3.5473 17.8007 2.70739C17.5052 1.88329 16.7091 1.39382 15.6862 1.64647C14.7385 1.88042 14.4534 2.68438 14.7424 3.50943C15.1453 4.66335 16.2184 7.45204 16.2184 7.45204L12.4528 7.89884L6.36449 6.7478C4.81433 5.30096 3.81651 3.68777 3.45446 1.35403C3.32142 0.497338 2.70637 -0.102396 1.59405 0.0145788C0.618583 0.117171 0.0487896 0.920171 0.182377 1.77639C0.728179 5.29856 2.53189 8.27805 5.28925 10.2594V17.1508C3.39666 21.4056 3.37431 25.7964 6.16438 29.694C6.52752 30.2002 7.14693 30.4778 7.77998 30.4778C8.12785 30.4778 8.479 30.3929 8.7947 30.2199C9.6851 29.7256 9.95337 28.6915 9.3923 27.9072C7.8465 25.7489 7.13003 23.1295 7.9032 20.081C8.02752 19.5905 8.53243 19.2463 9.10386 19.2645H9.1055C9.64366 19.2813 10.1 19.614 10.2195 20.0752C10.5591 21.3797 10.7271 22.6506 10.9839 23.444C11.4872 24.9953 13.2467 25.27 14.3667 24.7523C16.6437 23.7 18.0657 22.9449 19.7064 21.8394C20.5433 21.2761 20.6633 20.2046 20.0052 19.4831Z" fill="#E5E5E5"/>
<path d="M9.95448 6.55663C11.5695 6.55663 12.8787 5.40553 12.8787 3.98559C12.8787 2.56564 11.5695 1.41455 9.95448 1.41455C8.33949 1.41455 7.03027 2.56564 7.03027 3.98559C7.03027 5.40553 8.33949 6.55663 9.95448 6.55663Z" fill="#E5E5E5"/>
</svg>
