<svg width="45" height="45" viewBox="0 0 45 45" fill="none" xmlns="http://www.w3.org/2000/svg">
<ellipse cx="22.6293" cy="22.5001" rx="17.6786" ry="17.6786" fill="#C4C4C4" fill-opacity="0.4"/>
<path d="M18.4324 34.5535C20.6209 34.5535 22.3971 32.7535 22.3971 30.5357V26.5178H18.4324C16.2439 26.5178 14.4678 28.3178 14.4678 30.5357C14.4678 32.7535 16.2439 34.5535 18.4324 34.5535Z" fill="#0ACF83"/>
<path d="M14.4678 22.5C14.4678 20.2822 16.2439 18.4822 18.4324 18.4822H22.3971V26.5179H18.4324C16.2439 26.5179 14.4678 24.7179 14.4678 22.5Z" fill="#A259FF"/>
<path d="M14.4741 14.4644C14.4741 12.2465 16.2503 10.4465 18.4388 10.4465H22.4034V18.4822H18.4388C16.2503 18.4822 14.4741 16.6822 14.4741 14.4644Z" fill="#F24E1E"/>
<path d="M22.397 10.4465H26.3616C28.5501 10.4465 30.3263 12.2465 30.3263 14.4644C30.3263 16.6822 28.5501 18.4822 26.3616 18.4822H22.397V10.4465Z" fill="#FF7262"/>
<path d="M30.3263 22.5C30.3263 24.7179 28.5501 26.5179 26.3616 26.5179C24.1731 26.5179 22.397 24.7179 22.397 22.5C22.397 20.2822 24.1731 18.4822 26.3616 18.4822C28.5501 18.4822 30.3263 20.2822 30.3263 22.5Z" fill="#1ABCFE"/>
<path d="M6.5901 6.5901C2.90926 10.2709 0.618571 15.1142 0.108344 20.2946C-0.401884 25.475 0.899917 30.6721 3.79193 35.0003C6.68395 39.3285 10.9872 42.5201 15.9686 44.0312C20.9499 45.5422 26.3011 45.2793 31.1104 43.2873C35.9196 41.2952 39.8894 37.6973 42.3432 33.1064C44.7971 28.5156 45.5832 23.2159 44.5677 18.1105C43.5521 13.005 40.7978 8.4096 36.7738 5.10727C32.7499 1.80494 27.7055 3.93004e-07 22.5 0L22.5 3.44322C26.9089 3.44322 31.1814 4.97195 34.5895 7.76891C37.9976 10.5659 40.3305 14.458 41.1906 18.7822C42.0507 23.1064 41.3849 27.595 39.3066 31.4833C37.2282 35.3716 33.866 38.419 29.7927 40.1062C25.7194 41.7934 21.1872 42.016 16.9681 40.7362C12.7491 39.4564 9.10432 36.7532 6.65487 33.0874C4.20542 29.4215 3.10284 25.0198 3.53499 20.6321C3.96713 16.2445 5.90727 12.1424 9.02482 9.02483L6.5901 6.5901Z" fill="#3B5999"/>
</svg>
