<svg width="45" height="45" viewBox="0 0 45 45" fill="none" xmlns="http://www.w3.org/2000/svg">
<circle cx="22.6293" cy="22.5001" r="17.6786" fill="#C4C4C4" fill-opacity="0.4"/>
<path d="M12.8813 10.4465L14.2751 31.5451L22.795 34.5537L31.3149 31.5451L32.7086 10.4465H12.8813Z" fill="#FF7816"/>
<path d="M28.9878 16.85H19.2451L19.4816 20.3813H28.7512L28.1858 28.9317L22.795 30.8669L17.4043 28.9317L17.2203 26.0785H19.8499L19.9025 26.8554L22.795 27.8864L25.6876 26.8554L25.9242 23.2063H17.0231L16.4182 14.0249H29.1719L28.9878 16.85Z" fill="#ECECF1"/>
<path d="M13.3484 1.94523C8.25458 4.21315 4.1843 8.2917 1.92671 13.3901C-0.33088 18.4886 -0.614939 24.2437 1.12961 29.5396C2.87415 34.8356 6.52301 39.2951 11.3688 42.0537C16.2145 44.8122 21.9119 45.6732 27.3564 44.4696C32.8009 43.2661 37.6045 40.0839 40.8361 35.5399C44.0676 30.9959 45.4967 25.4139 44.8465 19.876C44.1962 14.3381 41.5128 9.23901 37.3166 5.5672C33.1203 1.89539 27.7101 -0.0875012 22.135 0.00296134L22.1908 3.44573C26.9128 3.36911 31.4951 5.04856 35.0491 8.15846C38.6032 11.2684 40.876 15.5872 41.4267 20.2776C41.9775 24.9679 40.767 29.6958 38.03 33.5444C35.293 37.393 31.2245 40.0883 26.6132 41.1076C22.0019 42.1269 17.1764 41.3977 13.0722 39.0613C8.96801 36.7249 5.87754 32.9478 4.39996 28.4623C2.92239 23.9768 3.16298 19.1024 5.07508 14.7842C6.98719 10.466 10.4346 7.01163 14.7489 5.09077L13.3484 1.94523Z" fill="#3B5999"/>
</svg>
