<svg width="57" height="21" viewBox="0 0 57 21" fill="none" xmlns="http://www.w3.org/2000/svg">
<path d="M0.63158 9.6116V0.161621H5.36843C6.23685 0.161621 6.94738 0.24239 7.42106 0.403928C7.89475 0.565466 8.28949 0.888543 8.52633 1.29239C8.84212 1.777 9.00001 2.26162 8.92107 2.827C8.92107 3.79623 8.52633 4.60392 7.65791 5.08853C7.42106 5.25007 7.10527 5.41161 6.71054 5.41161C6.94738 5.49238 7.26317 5.65392 7.50001 5.81546C7.65791 5.97699 7.8158 6.13853 7.9737 6.30007C8.13159 6.46161 8.28949 6.70392 8.36843 6.86545L9.78949 9.6116H6.47369L4.97369 6.70392C4.73685 6.38084 4.57895 6.13853 4.42106 5.97699C4.18422 5.81546 3.94737 5.73469 3.71053 5.73469H3.47369V9.53083L0.63158 9.6116ZM3.47369 3.95777H4.6579C4.89474 3.95777 5.13159 3.877 5.44738 3.79623C5.60527 3.79623 5.76317 3.63469 5.92106 3.47315C6.23685 3.06931 6.1579 2.58469 5.84211 2.26162C5.60527 2.18085 5.21053 2.10008 4.73685 2.10008H3.47369V3.95777ZM0 17.6885L2.68421 17.527C2.76316 18.0116 2.84211 18.3347 3.07895 18.577C3.39474 18.9808 3.78948 19.1424 4.34211 19.1424C4.73685 19.1424 5.05264 19.0616 5.28948 18.8193C5.52632 18.6577 5.60527 18.4154 5.60527 18.1731C5.60527 17.9308 5.52632 17.6885 5.28948 17.527C5.05264 17.3654 4.57895 17.1231 3.78948 16.9616C2.52632 16.6385 1.6579 16.3154 1.10526 15.8308C0.552632 15.3462 0.31579 14.7001 0.31579 13.9731C0.31579 13.4885 0.473685 13.0039 0.710527 12.6001C1.02632 12.1154 1.42105 11.7924 1.97369 11.5501C2.52632 11.3078 3.31579 11.1462 4.26316 11.1462C5.44738 11.1462 6.3158 11.3885 6.94738 11.7924C7.57896 12.277 7.89475 12.9231 8.05264 13.9731L5.36843 14.1347C5.28948 13.7308 5.13159 13.4077 4.89474 13.1654C4.6579 13.0039 4.34211 12.8424 3.94737 12.8424C3.63158 12.8424 3.39474 12.9231 3.23685 13.0847C3.07895 13.2462 3 13.4077 3 13.6501C3 13.8116 3.07895 13.9731 3.23685 14.0539C3.39474 14.2154 3.71053 14.2962 4.18422 14.377C5.44738 14.6193 6.3158 14.9424 6.86843 15.1847C7.42106 15.5077 7.8158 15.8308 8.05264 16.2347C8.28949 16.6385 8.44738 17.1231 8.44738 17.6077C8.44738 18.1731 8.28949 18.8193 7.9737 19.3039C7.65791 19.7885 7.18422 20.1924 6.63159 20.4347C5.92106 20.8385 5.13159 21 4.26316 21C2.68421 21 1.57895 20.677 1.02632 20.0308C0.394737 19.4654 0.0789475 18.6577 0 17.6885Z" fill="white"/>
<path d="M13.658 16.9614L16.1843 17.7691C16.0264 18.4153 15.7896 19.0614 15.3949 19.546C15.0791 20.0306 14.6054 20.3537 14.0528 20.596C13.5001 20.8383 12.8685 20.9999 12.0001 20.9999C10.9738 20.9999 10.1843 20.8383 9.55275 20.596C8.92117 20.2729 8.36854 19.7883 7.89485 19.0614C7.42117 18.3345 7.18433 17.3653 7.18433 16.1537C7.18433 14.6191 7.57906 13.4076 8.36854 12.5191C9.15801 11.6307 10.3422 11.2268 11.8422 11.2268C13.0264 11.2268 13.8949 11.4691 14.6054 11.9537C15.237 12.4383 15.7896 13.1653 16.1054 14.1345L13.5791 14.6999C13.5001 14.4576 13.4212 14.296 13.2633 14.0537C13.1054 13.8114 12.9475 13.6499 12.7106 13.5691C12.4738 13.4883 12.237 13.4076 11.9212 13.4076C11.2896 13.4076 10.737 13.6499 10.4212 14.2153C10.1843 14.6191 10.0264 15.2653 10.0264 16.073C10.0264 17.1229 10.1843 17.8499 10.5001 18.2537C10.8159 18.6576 11.2106 18.8191 11.8422 18.8191C12.3949 18.8191 12.7896 18.6576 13.1054 18.3345C13.3422 18.0114 13.5791 17.5268 13.658 16.9614ZM19.5001 11.3883H22.3422V14.6999H25.4212V11.3883H28.2633V20.8383H25.4212V17.0422H22.3422V20.8383H19.5001C19.5001 20.8383 19.5001 11.3883 19.5001 11.3883Z" fill="white"/>
<path d="M27.9473 16.0732C27.9473 14.5385 28.342 13.327 29.2104 12.4385C30.0788 11.5501 31.2631 11.1462 32.6841 11.1462C34.1841 11.1462 35.3683 11.5501 36.2368 12.4385C37.1052 13.327 37.5789 14.5385 37.5789 16.0732C37.5789 17.2039 37.421 18.0924 37.0262 18.8193C36.7104 19.5462 36.1578 20.1116 35.4473 20.4347C34.7367 20.8385 33.8683 21.0001 32.842 21.0001C31.8157 21.0001 30.9473 20.8385 30.2367 20.5155C29.5262 20.1924 28.9736 19.627 28.5788 18.9001C28.1841 18.1731 27.9473 17.2039 27.9473 16.0732ZM30.7894 16.1539C30.7894 17.1232 30.9473 17.7693 31.342 18.2539C31.6578 18.6578 32.1315 18.9001 32.7631 18.9001C33.3946 18.9001 33.8683 18.7385 34.1841 18.2539C34.4999 17.8501 34.6578 17.1232 34.6578 16.0732C34.6578 15.1847 34.4999 14.5385 34.1052 14.1347C33.7894 13.7309 33.3157 13.4885 32.6841 13.4885C32.1315 13.4885 31.6578 13.7309 31.2631 14.1347C30.8683 14.5385 30.7894 15.1847 30.7894 16.1539Z" fill="white"/>
<path d="M49.7369 11.3884H52.579V18.4961H57.0001V20.8384H49.658L49.7369 11.3884Z" fill="white"/>
<path d="M48.5528 2.50396C46.737 0.0808883 43.0265 -0.0806499 40.1054 2.10012C37.1844 4.28088 36.3949 8.07703 38.2107 10.5001C40.0265 12.9232 43.737 13.0847 46.6581 10.9039C49.5002 8.64241 50.3686 4.84626 48.5528 2.50396ZM46.5002 10.6616C45.1581 11.7116 43.5791 12.277 42.0002 12.1962C40.5002 12.1155 39.1581 11.4693 38.3686 10.3386C37.5791 9.20779 37.2633 7.75395 37.6581 6.21934C38.0528 4.68473 39.0002 3.23088 40.3423 2.26165C41.6844 1.21166 43.2633 0.646272 44.8423 0.727041C46.2634 0.80781 47.6055 1.45396 48.3949 2.58473C49.1844 3.7155 49.5002 5.16934 49.1055 6.70395C48.7897 8.23857 47.8423 9.61164 46.5002 10.6616Z" fill="white"/>
<path d="M40.4999 5.8152L41.5263 5.00751L42.7894 6.8652C43.0263 7.18827 43.1842 7.51135 43.2631 7.83443C43.342 8.07673 43.342 8.39981 43.1841 8.64212C43.0263 8.96519 42.8684 9.2075 42.5526 9.44981C42.2368 9.69211 41.921 9.85365 41.6841 9.85365C41.4473 9.93442 41.2105 9.85365 40.9736 9.77288C40.7368 9.61135 40.4999 9.44981 40.342 9.2075L41.2105 8.39981C41.2894 8.48058 41.3684 8.64212 41.4473 8.72289C41.5263 8.80365 41.6052 8.80365 41.6841 8.80365C41.7631 8.80365 41.842 8.80365 41.842 8.72289C41.921 8.64212 41.9999 8.56135 41.9999 8.39981C41.9999 8.23827 41.921 8.07673 41.7631 7.9152L40.4999 5.8152ZM43.5789 6.94597L44.5263 6.21904C44.6052 6.38058 44.7631 6.46135 44.921 6.46135C45.1578 6.54212 45.3157 6.46135 45.5526 6.38058C45.7105 6.29981 45.7894 6.21904 45.7894 6.05751C45.8684 5.89597 45.7105 5.65366 45.5526 5.57289H45.4736C45.3157 5.57289 45.1578 5.65366 44.842 5.73443C44.2894 5.97674 43.8947 6.05751 43.5789 5.97674C43.2631 5.97674 43.0263 5.8152 42.8684 5.49212C42.7105 5.33058 42.7105 5.08828 42.7105 4.92674C42.7105 4.68443 42.7894 4.44212 42.8684 4.19982C43.0263 3.87674 43.2631 3.63443 43.5789 3.4729C43.9736 3.14982 44.3684 2.98828 44.7631 2.98828C45.0789 2.98828 45.3947 3.14982 45.7105 3.4729L44.6842 4.28059C44.5263 4.03828 44.1315 3.95751 43.8947 4.19982C43.8157 4.28059 43.7368 4.36136 43.6578 4.44212C43.6578 4.52289 43.6578 4.60366 43.7368 4.68443C43.7368 4.7652 43.8157 4.84597 43.8157 4.84597C43.8947 4.84597 44.0526 4.84597 44.2105 4.68443C44.7631 4.44212 45.1578 4.36136 45.3947 4.28059C45.6315 4.19982 45.8684 4.28059 46.1052 4.36136C46.2631 4.44212 46.4999 4.60366 46.5789 4.7652C46.7368 5.00751 46.8157 5.24982 46.8157 5.49212C46.8157 5.73443 46.7368 6.05751 46.5789 6.29981C46.421 6.62289 46.1842 6.8652 45.8684 7.02673C45.3157 7.43058 44.842 7.59212 44.4473 7.51135C44.1315 7.43058 43.8157 7.26904 43.5789 6.94597Z" fill="white"/>
<path d="M37.658 6.29999C37.658 6.13845 37.737 5.97691 37.737 5.89614C37.658 5.65384 37.5791 5.41153 37.4212 5.16922C37.1844 4.76538 36.7896 4.4423 36.237 4.11922C35.6844 3.79615 34.8159 3.55384 33.5528 3.31153C33.0791 3.23076 32.7633 3.06923 32.6054 2.98846C32.4475 2.90769 32.3686 2.74615 32.3686 2.58461C32.3686 2.3423 32.4475 2.18077 32.6054 2.01923C32.7633 1.85769 33.0001 1.77692 33.3159 1.77692C33.7107 1.77692 34.0265 1.85769 34.2633 2.1C34.5001 2.26153 34.658 2.58461 34.737 3.06922L37.4212 2.90769C37.3423 1.93846 36.9475 1.21154 36.3159 0.726922C35.7633 0.242307 34.8949 0 33.7107 0C32.7633 0 31.9738 0.161538 31.4212 0.403845C30.9475 0.565384 30.4738 0.969229 30.158 1.45384C29.9212 1.85769 29.7633 2.3423 29.7633 2.82692C29.7633 3.55384 30.0791 4.19999 30.5528 4.68461C31.1054 5.16922 31.9738 5.57307 33.237 5.81537C34.0265 5.97691 34.5001 6.13845 34.658 6.38076C34.8159 6.5423 34.9738 6.7846 34.9738 7.02691C34.9738 7.26922 34.8159 7.51152 34.658 7.67306C34.4212 7.8346 34.1054 7.99614 33.7107 7.99614C33.158 7.99614 32.7633 7.8346 32.4475 7.43076C32.2896 7.18845 32.1317 6.86537 32.0528 6.38076L29.4475 6.46153C29.5265 7.43076 29.8422 8.15768 30.4738 8.80383C31.1054 9.44998 32.1317 9.77306 33.7107 9.77306C34.5791 9.77306 35.3686 9.61152 35.9212 9.36921C36.4738 9.12691 36.9475 8.72306 37.2633 8.23845C37.3423 8.15768 37.3423 8.07691 37.4212 7.99614C37.4212 7.43076 37.5002 6.86537 37.658 6.29999Z" fill="white"/>
<path d="M48.7893 12.5191C47.9999 11.7114 46.9735 11.3076 45.6314 11.2268C44.5262 11.873 43.263 12.196 42.0788 12.196C41.9209 12.2768 41.842 12.4383 41.6841 12.5191C40.8156 13.4076 40.4209 14.6191 40.4209 16.1537C40.4209 17.2845 40.6577 18.1729 41.0525 18.8999C41.4472 19.6268 41.9998 20.1114 42.7104 20.5153C43.4209 20.8383 44.2104 20.9999 45.3156 20.9999C46.342 20.9999 47.2104 20.8383 47.9209 20.4345C48.6314 20.0306 49.1051 19.4653 49.4999 18.8191C49.8946 18.0922 50.0525 17.2037 50.0525 16.073C50.0525 14.5383 49.5788 13.3268 48.7893 12.5191ZM46.6578 18.1729C46.342 18.5768 45.8683 18.8191 45.2367 18.8191C44.6051 18.8191 44.1314 18.5768 43.8156 18.1729C43.4999 17.7691 43.263 17.0422 43.263 16.073C43.263 15.1037 43.4209 14.4576 43.8156 13.973C44.1314 13.5691 44.6841 13.3268 45.2367 13.3268C45.8683 13.3268 46.342 13.4883 46.6578 13.973C46.9735 14.3768 47.2104 15.023 47.2104 15.9114C47.2104 17.0422 46.9735 17.7691 46.6578 18.1729Z" fill="white"/>
</svg>
