<svg width="25" height="24" viewBox="0 0 25 24" fill="none" xmlns="http://www.w3.org/2000/svg">
<path d="M20.3205 15.38C19.0905 15.38 17.9005 15.18 16.7905 14.82C16.4405 14.7 16.0505 14.79 15.7805 15.06L14.2105 17.03C11.3805 15.68 8.73055 13.13 7.32055 10.2L9.27055 8.54C9.54055 8.26 9.62055 7.87 9.51055 7.52C9.14055 6.41 8.95055 5.22 8.95055 3.99C8.95055 3.45 8.50055 3 7.96055 3H4.50055C3.96055 3 3.31055 3.24 3.31055 3.99C3.31055 13.28 11.0405 21 20.3205 21C21.0305 21 21.3105 20.37 21.3105 19.82V16.37C21.3105 15.83 20.8605 15.38 20.3205 15.38Z" fill="white"/>
</svg>
