<svg width="36" height="28" viewBox="0 0 36 28" fill="none" xmlns="http://www.w3.org/2000/svg">
<path d="M11.6695 0C8.2867 0 6.22821 1.95313 1.21082 1.95313C0.637321 1.95313 0.171875 2.39063 0.171875 2.92969V23.4063C6.00519 23.6908 8.06576 21.4844 11.6695 21.4844C13.6012 21.4844 15.4561 22.6374 16.8642 23.8711V2.38542C15.3917 1.10417 13.5583 0 11.6695 0V0ZM12.7084 16.6016H4.39691C3.82341 16.6016 3.35796 16.1641 3.35796 15.625C3.35796 15.0859 3.82341 14.6484 4.39691 14.6484H12.7084C13.2819 14.6484 13.7474 15.0859 13.7474 15.625C13.7474 16.1641 13.2819 16.6016 12.7084 16.6016ZM12.7084 12.6953H4.39691C3.82341 12.6953 3.35796 12.2578 3.35796 11.7188C3.35796 11.1797 3.82341 10.7422 4.39691 10.7422H12.7084C13.2819 10.7422 13.7474 11.1797 13.7474 11.7188C13.7474 12.2578 13.2819 12.6953 12.7084 12.6953ZM12.7084 8.78906H4.39691C3.82341 8.78906 3.35796 8.35156 3.35796 7.8125C3.35796 7.27344 3.82341 6.83594 4.39691 6.83594H12.7084C13.2819 6.83594 13.7474 7.27344 13.7474 7.8125C13.7474 8.35156 13.2819 8.78906 12.7084 8.78906ZM11.6695 23.4375C8.66765 23.4375 6.2386 25.6517 0.171875 25.3704V26.3672C0.171875 26.9063 0.637321 27.3438 1.21082 27.3438H16.8642V26.7044C15.9105 25.6035 13.6296 23.4375 11.6695 23.4375ZM24.1368 23.4375C22.169 23.4375 19.8924 25.6029 18.9421 26.7038V27.3438H34.5955C35.169 27.3438 35.6344 26.9063 35.6344 26.3672V25.3672C29.5484 25.6475 27.1411 23.4375 24.1368 23.4375ZM34.5955 1.95313C29.5774 1.95313 27.521 0 24.1368 0C22.2487 0 20.416 1.10286 18.9421 2.38542V23.8711C20.3506 22.6373 22.2053 21.4844 24.1368 21.4844C27.7509 21.4844 29.8406 23.7064 35.6344 23.4128V2.92969C35.6344 2.39063 35.169 1.95313 34.5955 1.95313ZM31.4094 16.6016H23.0979C22.5244 16.6016 22.0589 16.1641 22.0589 15.625C22.0589 15.0859 22.5244 14.6484 23.0979 14.6484H31.4094C31.9829 14.6484 32.4483 15.0859 32.4483 15.625C32.4483 16.1641 31.9829 16.6016 31.4094 16.6016ZM31.4094 12.6953H23.0979C22.5244 12.6953 22.0589 12.2578 22.0589 11.7188C22.0589 11.1797 22.5244 10.7422 23.0979 10.7422H31.4094C31.9829 10.7422 32.4483 11.1797 32.4483 11.7188C32.4483 12.2578 31.9829 12.6953 31.4094 12.6953ZM31.4094 8.78906H23.0979C22.5244 8.78906 22.0589 8.35156 22.0589 7.8125C22.0589 7.27344 22.5244 6.83594 23.0979 6.83594H31.4094C31.9829 6.83594 32.4483 7.27344 32.4483 7.8125C32.4483 8.35156 31.9829 8.78906 31.4094 8.78906Z" fill="#E5E5E5"/>
</svg>
