<svg width="31" height="29" viewBox="0 0 31 29" fill="none" xmlns="http://www.w3.org/2000/svg">
<path d="M1.55033 28.7511L3.56351 26.8676L4.84777 28.0693C5.19047 28.3897 5.74083 28.4019 6.09939 28.0985L18.9441 17.2258L19.6177 17.856C19.9719 18.1875 20.5474 18.1877 20.9019 17.856L23.4704 15.4528C23.5364 15.3911 23.5901 15.3222 23.6315 15.249C25.201 15.1041 26.6952 14.5378 27.9294 13.6165L28.6079 14.2513C28.9624 14.583 29.5374 14.5832 29.8922 14.2513C30.2467 13.9194 30.2467 13.3815 29.8922 13.0498L29.2143 12.4156C31.7746 9.42696 31.5898 5.02547 28.6077 2.2357C25.638 -0.542553 20.9331 -0.731296 17.727 1.66859L17.0489 1.03421C16.6944 0.70253 16.1192 0.70253 15.7647 1.03421C15.4099 1.36612 15.4099 1.90402 15.7647 2.2357L16.443 2.87053C15.4581 4.02511 14.8529 5.42331 14.6982 6.89165C14.6185 6.93104 14.545 6.98149 14.4802 7.04212L11.9116 9.4451C11.5569 9.77701 11.5569 10.3149 11.9116 10.6466L12.585 11.2768L0.963546 23.2937C0.639053 23.6296 0.652534 24.1445 0.994766 24.4646L2.27926 25.6661L0.266075 27.5496C-0.0886917 27.8815 -0.0886917 28.4194 0.266075 28.7511C0.620605 29.083 1.19556 29.083 1.55033 28.7511ZM27.3234 3.43742C29.6006 5.5678 29.7711 8.89613 27.9199 11.2046L19.0212 2.87938C21.4866 1.14905 25.0446 1.30527 27.3234 3.43742ZM26.6347 12.4052C25.5229 13.1815 24.1615 13.6001 22.7599 13.5864L16.4751 7.70681C16.4605 6.39535 16.9079 5.12172 17.7379 4.08198L26.6347 12.4052ZM15.1225 8.84436L21.544 14.852L20.2598 16.0538L13.838 10.0458L15.1225 8.84436ZM8.21829 24.0133L5.33025 21.3113L13.8709 12.4798L17.6582 16.0228L8.21829 24.0133ZM4.11009 22.5728L6.86994 25.1548L5.52135 26.2961L2.89017 23.8345L4.11009 22.5728Z" fill="#E5E5E5"/>
</svg>
